<mxfile host="app.diagrams.net" modified="2024-04-20T20:43:54.223Z" agent="Mozilla/5.0 (Windows NT 10.0; Win64; x64) AppleWebKit/537.36 (KHTML, like Gecko) Chrome/124.0.0.0 Safari/537.36" etag="DIxZdTP2VYAhSSyVsMUS" version="24.2.7" type="device">
  <diagram id="prtHgNgQTEPvFCAcTncT" name="Page-1">
    <mxGraphModel dx="2333" dy="1253" grid="1" gridSize="10" guides="1" tooltips="1" connect="1" arrows="1" fold="1" page="1" pageScale="1" pageWidth="850" pageHeight="1100" math="0" shadow="0">
      <root>
        <mxCell id="0" />
        <mxCell id="1" parent="0" />
        <mxCell id="9lZ008rthi-1Io387yjq-19" value="Card" style="swimlane;fontSize=16;startSize=23;" vertex="1" parent="1">
          <mxGeometry x="225" y="130" width="400" height="190" as="geometry" />
        </mxCell>
        <mxCell id="9lZ008rthi-1Io387yjq-20" value="" style="line;strokeWidth=2;html=1;" vertex="1" parent="9lZ008rthi-1Io387yjq-19">
          <mxGeometry y="90" width="400" height="10" as="geometry" />
        </mxCell>
        <mxCell id="9lZ008rthi-1Io387yjq-21" value="&lt;font style=&quot;font-size: 15px;&quot;&gt;- face: String&lt;/font&gt;&lt;div style=&quot;font-size: 15px;&quot;&gt;&lt;font style=&quot;font-size: 15px;&quot;&gt;- suit: String&lt;/font&gt;&lt;/div&gt;" style="text;html=1;align=left;verticalAlign=middle;resizable=0;points=[];autosize=1;strokeColor=none;fillColor=none;" vertex="1" parent="9lZ008rthi-1Io387yjq-19">
          <mxGeometry x="10" y="35" width="110" height="50" as="geometry" />
        </mxCell>
        <mxCell id="9lZ008rthi-1Io387yjq-22" value="&amp;lt;&amp;lt;Constructor&amp;gt;&amp;gt; Card(cardFace: String, cardSuit: String)&lt;div&gt;+ toString()&lt;/div&gt;&lt;div&gt;+ getFace(): String&lt;/div&gt;&lt;div&gt;+ getSuit(): String&lt;/div&gt;" style="text;html=1;align=left;verticalAlign=middle;resizable=0;points=[];autosize=1;strokeColor=none;fillColor=none;fontSize=15;" vertex="1" parent="9lZ008rthi-1Io387yjq-19">
          <mxGeometry y="100" width="400" height="90" as="geometry" />
        </mxCell>
        <mxCell id="9lZ008rthi-1Io387yjq-23" value="DeckOfCards" style="swimlane;fontSize=16;startSize=23;" vertex="1" parent="1">
          <mxGeometry x="265" y="460" width="320" height="440" as="geometry" />
        </mxCell>
        <mxCell id="9lZ008rthi-1Io387yjq-24" value="" style="line;strokeWidth=2;html=1;" vertex="1" parent="9lZ008rthi-1Io387yjq-23">
          <mxGeometry y="190" width="320" height="10" as="geometry" />
        </mxCell>
        <mxCell id="9lZ008rthi-1Io387yjq-25" value="&lt;font style=&quot;font-size: 15px;&quot;&gt;- randomNumbers: SecureRandom&lt;/font&gt;&lt;div style=&quot;font-size: 15px;&quot;&gt;&lt;font style=&quot;font-size: 15px;&quot;&gt;- NUMBER_OF_CARDS: int&lt;/font&gt;&lt;/div&gt;&lt;div style=&quot;font-size: 15px;&quot;&gt;&lt;font style=&quot;font-size: 15px;&quot;&gt;- deck: Card[]&lt;/font&gt;&lt;/div&gt;&lt;div style=&quot;font-size: 15px;&quot;&gt;&lt;font style=&quot;font-size: 15px;&quot;&gt;- currentCard: int&lt;/font&gt;&lt;/div&gt;&lt;div style=&quot;font-size: 15px;&quot;&gt;&lt;font style=&quot;font-size: 15px;&quot;&gt;- faces: String[]&lt;/font&gt;&lt;/div&gt;&lt;div style=&quot;font-size: 15px;&quot;&gt;- suits: String[]&lt;/div&gt;&lt;div style=&quot;font-size: 15px;&quot;&gt;- HAND_SIZE: int&lt;br&gt;- hand: card[]&lt;/div&gt;" style="text;html=1;align=left;verticalAlign=middle;resizable=0;points=[];autosize=1;strokeColor=none;fillColor=none;" vertex="1" parent="9lZ008rthi-1Io387yjq-23">
          <mxGeometry x="10" y="20" width="260" height="160" as="geometry" />
        </mxCell>
        <mxCell id="9lZ008rthi-1Io387yjq-26" value="&amp;lt;&amp;lt;Constructor&amp;gt;&amp;gt; DeckOfCard()&lt;div&gt;+ shuffle()&lt;/div&gt;&lt;div&gt;+ dealCard(): Card&lt;/div&gt;&lt;div&gt;+ dealHand(): Card[]&lt;/div&gt;&lt;div&gt;+ findIndex(array: String[], value: String): int&lt;/div&gt;&lt;div&gt;+ isPair(hand: Card[]): boolean&lt;/div&gt;&lt;div&gt;+ isTwoPairs(hand: Card[]): boolean&lt;/div&gt;&lt;div&gt;+ isThreeOfAKind(hand: Card[]): boolean&lt;/div&gt;&lt;div&gt;+ isFourOfAKind(hand: Card[]): boolean&lt;/div&gt;&lt;div&gt;+ isFlush(hand: Card[]): boolean&lt;/div&gt;&lt;div&gt;+ isStraight(hand: Card[]): boolean&lt;/div&gt;&lt;div&gt;+ isFullHouse(hand: Card[]): boolean&lt;/div&gt;&lt;div&gt;&lt;br&gt;&lt;/div&gt;" style="text;html=1;align=left;verticalAlign=middle;resizable=0;points=[];autosize=1;strokeColor=none;fillColor=none;fontSize=15;" vertex="1" parent="9lZ008rthi-1Io387yjq-23">
          <mxGeometry y="200" width="310" height="250" as="geometry" />
        </mxCell>
      </root>
    </mxGraphModel>
  </diagram>
</mxfile>
